<svg xmlns="http://www.w3.org/2000/svg" width="23" height="23" viewBox="0 0 23 23" fill="none">
  <path d="M17.5362 3.69162H15.6903V2.76866C15.6903 2.52388 15.5931 2.28912 15.42 2.11603C15.2469 1.94294 15.0121 1.8457 14.7674 1.8457C14.5226 1.8457 14.2878 1.94294 14.1147 2.11603C13.9416 2.28912 13.8444 2.52388 13.8444 2.76866V3.69162H8.30665V2.76866C8.30665 2.52388 8.20941 2.28912 8.03633 2.11603C7.86324 1.94294 7.62848 1.8457 7.3837 1.8457C7.13891 1.8457 6.90415 1.94294 6.73107 2.11603C6.55798 2.28912 6.46074 2.52388 6.46074 2.76866V3.69162H4.61482C3.88047 3.69162 3.1762 3.98334 2.65693 4.5026C2.13767 5.02187 1.84595 5.72614 1.84595 6.46049V17.536C1.84595 18.2703 2.13767 18.9746 2.65693 19.4939C3.1762 20.0131 3.88047 20.3049 4.61482 20.3049H17.5362C18.2706 20.3049 18.9749 20.0131 19.4941 19.4939C20.0134 18.9746 20.3051 18.2703 20.3051 17.536V6.46049C20.3051 5.72614 20.0134 5.02187 19.4941 4.5026C18.9749 3.98334 18.2706 3.69162 17.5362 3.69162ZM18.4592 17.536C18.4592 17.7808 18.362 18.0155 18.1889 18.1886C18.0158 18.3617 17.781 18.459 17.5362 18.459H4.61482C4.37004 18.459 4.13528 18.3617 3.96219 18.1886C3.7891 18.0155 3.69186 17.7808 3.69186 17.536V11.0753H18.4592V17.536ZM18.4592 9.22937H3.69186V6.46049C3.69186 6.21571 3.7891 5.98095 3.96219 5.80786C4.13528 5.63478 4.37004 5.53754 4.61482 5.53754H6.46074V6.46049C6.46074 6.70528 6.55798 6.94004 6.73107 7.11312C6.90415 7.28621 7.13891 7.38345 7.3837 7.38345C7.62848 7.38345 7.86324 7.28621 8.03633 7.11312C8.20941 6.94004 8.30665 6.70528 8.30665 6.46049V5.53754H13.8444V6.46049C13.8444 6.70528 13.9416 6.94004 14.1147 7.11312C14.2878 7.28621 14.5226 7.38345 14.7674 7.38345C15.0121 7.38345 15.2469 7.28621 15.42 7.11312C15.5931 6.94004 15.6903 6.70528 15.6903 6.46049V5.53754H17.5362C17.781 5.53754 18.0158 5.63478 18.1889 5.80786C18.362 5.98095 18.4592 6.21571 18.4592 6.46049V9.22937Z" fill="black"/>
</svg>