<svg width="40" height="40" viewBox="0 0 40 40" fill="none" xmlns="http://www.w3.org/2000/svg">
<path d="M15.1784 9.08016C16.1751 6.1635 20.2051 6.07516 21.3867 8.81516L21.4867 9.08183L22.8317 13.0152C23.14 13.9172 23.6381 14.7427 24.2924 15.4359C24.9468 16.1291 25.7422 16.6738 26.6251 17.0335L26.9867 17.1685L30.9201 18.5118C33.8367 19.5085 33.9251 23.5385 31.1867 24.7202L30.9201 24.8202L26.9867 26.1652C26.0844 26.4732 25.2586 26.9712 24.5651 27.6256C23.8716 28.28 23.3265 29.0755 22.9667 29.9585L22.8317 30.3185L21.4884 34.2535C20.4917 37.1702 16.4617 37.2585 15.2817 34.5202L15.1784 34.2535L13.8351 30.3202C13.527 29.4178 13.029 28.592 12.3746 27.8985C11.7202 27.205 10.9247 26.66 10.0417 26.3002L9.68172 26.1652L5.74839 24.8218C2.83005 23.8252 2.74172 19.7952 5.48172 18.6152L5.74839 18.5118L9.68172 17.1685C10.5838 16.8603 11.4092 16.3622 12.1024 15.7078C12.7956 15.0534 13.3404 14.258 13.7001 13.3752L13.8351 13.0152L15.1784 9.08016ZM31.6667 3.3335C31.9785 3.3335 32.2841 3.42096 32.5486 3.58595C32.8132 3.75094 33.0262 3.98683 33.1634 4.26683L33.2434 4.46183L33.8267 6.17183L35.5384 6.75516C35.8509 6.86132 36.1248 7.05786 36.3254 7.31986C36.5261 7.58186 36.6445 7.89753 36.6655 8.22686C36.6866 8.5562 36.6094 8.88438 36.4438 9.16981C36.2781 9.45524 36.0315 9.68506 35.7351 9.83016L35.5384 9.91016L33.8284 10.4935L33.2451 12.2052C33.1387 12.5175 32.942 12.7913 32.6799 12.9918C32.4178 13.1923 32.1021 13.3105 31.7728 13.3314C31.4435 13.3523 31.1153 13.2749 30.83 13.1091C30.5447 12.9434 30.315 12.6966 30.1701 12.4002L30.0901 12.2052L29.5067 10.4952L27.7951 9.91183C27.4826 9.80567 27.2087 9.60914 27.008 9.34714C26.8073 9.08514 26.689 8.76947 26.6679 8.44013C26.6469 8.11079 26.724 7.78261 26.8897 7.49718C27.0553 7.21176 27.302 6.98193 27.5984 6.83683L27.7951 6.75683L29.5051 6.1735L30.0884 4.46183C30.2008 4.13254 30.4134 3.84668 30.6964 3.64433C30.9795 3.44198 31.3188 3.33329 31.6667 3.3335Z" fill="white"/>
</svg>
