<svg width="17" height="20" viewBox="0 0 17 20" fill="none" xmlns="http://www.w3.org/2000/svg">
<path fill-rule="evenodd" clip-rule="evenodd" d="M12.1661 8.49943C12.1661 9.47189 11.7798 10.4045 11.0922 11.0922C10.4045 11.7798 9.47189 12.1661 8.49943 12.1661C7.52697 12.1661 6.59434 11.7798 5.90671 11.0922C5.21907 10.4045 4.83276 9.47189 4.83276 8.49943C4.83276 7.52697 5.21907 6.59434 5.90671 5.90671C6.59434 5.21907 7.52697 4.83276 8.49943 4.83276C9.47189 4.83276 10.4045 5.21907 11.0922 5.90671C11.7798 6.59434 12.1661 7.52697 12.1661 8.49943ZM10.3328 8.49943C10.3328 8.98566 10.1396 9.45198 9.79579 9.79579C9.45198 10.1396 8.98566 10.3328 8.49943 10.3328C8.0132 10.3328 7.54688 10.1396 7.20307 9.79579C6.85925 9.45198 6.6661 8.98566 6.6661 8.49943C6.6661 8.0132 6.85925 7.54688 7.20307 7.20307C7.54688 6.85925 8.0132 6.6661 8.49943 6.6661C8.98566 6.6661 9.45198 6.85925 9.79579 7.20307C10.1396 7.54688 10.3328 8.0132 10.3328 8.49943Z" fill="#FF0D0D"/>
<path fill-rule="evenodd" clip-rule="evenodd" d="M2.56117 14.2249C1.37944 13.0998 0.557892 11.6495 0.20042 10.0574C-0.157053 8.46535 -0.0343945 6.80303 0.552884 5.28068C1.14016 3.75833 2.16568 2.44431 3.49976 1.5048C4.83384 0.56529 6.41656 0.0424782 8.04777 0.00247997C9.67898 -0.0375183 11.2854 0.407094 12.6639 1.28009C14.0425 2.15309 15.1312 3.41526 15.7923 4.907C16.4535 6.39874 16.6575 8.05304 16.3785 9.66071C16.0995 11.2684 15.35 12.7572 14.2248 13.9389L8.53601 19.9138L2.56117 14.2249ZM12.8975 12.6748L8.47275 17.3223L3.82525 12.8976C2.90617 12.0225 2.26723 10.8945 1.98921 9.65623C1.7112 8.41799 1.8066 7.12511 2.26336 5.94109C2.72011 4.75707 3.51771 3.73507 4.55529 3.00434C5.59287 2.27361 6.82383 1.86695 8.09251 1.8358C9.3612 1.80465 10.6106 2.1504 11.6828 2.82934C12.755 3.50827 13.6018 4.48989 14.1161 5.65007C14.6304 6.81025 14.7892 8.09689 14.5723 9.34728C14.3553 10.5977 13.7725 11.7557 12.8975 12.6748Z" fill="#FF0D0D"/>
</svg>
