<svg width="366" height="513" viewBox="0 0 366 513" fill="none" xmlns="http://www.w3.org/2000/svg">
<path d="M248.88 29.28H117.12V43.92H248.88V29.28Z" fill="#2C5F2D"/>
<path d="M263.52 43.9199H102.48V58.5599H263.52V43.9199Z" fill="#2C5F2D"/>
<path d="M102.48 58.5601H87.84V87.8401H102.48V58.5601Z" fill="#2C5F2D"/>
<path d="M87.84 87.8401H73.2V131.76H87.84V87.8401Z" fill="#2C5F2D"/>
<path d="M102.48 131.76H87.84V190.32H102.48V131.76Z" fill="#2C5F2D"/>
<path d="M117.12 190.32H102.48V263.52H117.12V190.32Z" fill="#2C5F2D"/>
<path d="M131.76 263.52H117.12V322.08H131.76V263.52Z" fill="#2C5F2D"/>
<path d="M146.4 322.08H131.76V366H146.4V322.08Z" fill="#2C5F2D"/>
<path d="M175.68 366H146.4V380.64H175.68V366Z" fill="#2C5F2D"/>
<path d="M204.96 380.64H175.68V395.28H204.96V380.64Z" fill="#2C5F2D"/>
<path d="M234.24 366H204.96V380.64H234.24V366Z" fill="#2C5F2D"/>
<path d="M248.88 351.36H234.24V366H248.88V351.36Z" fill="#2C5F2D"/>
<path d="M263.52 322.08H248.88V351.36H263.52V322.08Z" fill="#2C5F2D"/>
<path d="M278.16 278.16H263.52V322.08H278.16V278.16Z" fill="#2C5F2D"/>
<path d="M278.16 234.24H263.52V278.16H278.16V234.24Z" fill="#2C5F2D"/>
<path d="M263.52 190.32H248.88V234.24H263.52V190.32Z" fill="#2C5F2D"/>
<path d="M248.88 146.4H234.24V190.32H248.88V146.4Z" fill="#2C5F2D"/>
<path d="M263.52 117.12H248.88V146.4H263.52V117.12Z" fill="#2C5F2D"/>
<path d="M278.16 87.8401H263.52V117.12H278.16V87.8401Z" fill="#2C5F2D"/>
<path d="M263.52 58.5601H248.88V87.8401H263.52V58.5601Z" fill="#2C5F2D"/>
<path d="M248.88 43.9199H117.12V58.5599H248.88V43.9199Z" fill="#4A9D4F"/>
<path d="M248.88 58.5598H102.48V73.1998H248.88V58.5598Z" fill="#4A9D4F"/>
<path d="M248.88 73.2H87.84V87.84H248.88V73.2Z" fill="#4A9D4F"/>
<path d="M248.88 87.8398H73.2V117.12H248.88V87.8398Z" fill="#4A9D4F"/>
<path d="M248.88 117.12H87.84V131.76H248.88V117.12Z" fill="#4A9D4F"/>
<path d="M234.24 131.76H87.84V146.4H234.24V131.76Z" fill="#4A9D4F"/>
<path d="M234.24 146.4H102.48V190.32H234.24V146.4Z" fill="#4A9D4F"/>
<path d="M248.88 190.32H102.48V234.24H248.88V190.32Z" fill="#4A9D4F"/>
<path d="M263.52 234.24H117.12V263.52H263.52V234.24Z" fill="#4A9D4F"/>
<path d="M248.88 263.52H117.12V278.16H248.88V263.52Z" fill="#4A9D4F"/>
<path d="M263.52 278.16H117.12V322.08H263.52V278.16Z" fill="#4A9D4F"/>
<path d="M248.88 322.08H131.76V351.36H248.88V322.08Z" fill="#4A9D4F"/>
<path d="M234.24 351.36H131.76V366H234.24V351.36Z" fill="#4A9D4F"/>
<path d="M204.96 366H146.4V380.64H204.96V366Z" fill="#4A9D4F"/>
<path d="M161.04 43.9199H117.12V58.5599H161.04V43.9199Z" fill="#6BC96F"/>
<path d="M161.04 58.5598H102.48V73.1998H161.04V58.5598Z" fill="#6BC96F"/>
<path d="M161.04 73.2H87.84V87.84H161.04V73.2Z" fill="#6BC96F"/>
<path d="M146.4 87.8398H73.2V117.12H146.4V87.8398Z" fill="#5FB863"/>
<path d="M146.4 117.12H87.84V146.4H146.4V117.12Z" fill="#5FB863"/>
<path d="M146.4 146.4H102.48V190.32H146.4V146.4Z" fill="#5FB863"/>
<path d="M248.88 58.5601H219.6V73.2001H248.88V58.5601Z" fill="#3D8841"/>
<path d="M248.88 87.8401H219.6V117.12H248.88V87.8401Z" fill="#3D8841"/>
<path d="M234.24 117.12H204.96V146.4H234.24V117.12Z" fill="#3D8841"/>
<path d="M248.88 190.32H219.6V234.24H248.88V190.32Z" fill="#3D8841"/>
<path d="M263.52 234.24H234.24V278.16H263.52V234.24Z" fill="#3D8841"/>
<path d="M263.52 278.16H234.24V322.08H263.52V278.16Z" fill="#3D8841"/>
<path d="M248.88 322.08H219.6V351.36H248.88V322.08Z" fill="#3D8841"/>
<path d="M234.24 351.36H204.96V366H234.24V351.36Z" fill="#3D8841"/>
<path d="M161.04 409.92H117.12V424.56H161.04V409.92Z" fill="#2C5F2D"/>
<path d="M161.04 424.56H117.12V439.2H161.04V424.56Z" fill="#4A9D4F"/>
<path d="M131.76 424.56H117.12V439.2H131.76V424.56Z" fill="#6BC96F"/>
<path d="M161.04 424.56H146.4V439.2H161.04V424.56Z" fill="#3D8841"/>
<path d="M161.04 161.04H131.76V175.68H161.04V161.04Z" fill="#E74C3C"/>
<path d="M161.04 175.68H131.76V190.32H161.04V175.68Z" fill="#FF6B5A"/>
<path d="M161.04 175.68H146.4V190.32H161.04V175.68Z" fill="#FFA599"/>
<path d="M161.04 190.32H146.4V204.96H161.04V190.32Z" fill="#C0392B"/>
<path d="M234.24 322.08H219.6V336.72H234.24V322.08Z" fill="#E74C3C"/>
<path d="M234.24 336.72H219.6V351.36H234.24V336.72Z" fill="#C0392B"/>
<path d="M146.4 409.92H131.76V424.56H146.4V409.92Z" fill="#E74C3C"/>
<path d="M204.96 58.5598H175.68V73.1998H204.96V58.5598Z" fill="#8B7355"/>
<path d="M204.96 43.9199H190.32V58.5599H204.96V43.9199Z" fill="#A0876F"/>
<path d="M234.24 161.04H204.96V175.68H234.24V161.04Z" fill="#8B7355"/>
<path d="M234.24 146.4H219.6V161.04H234.24V146.4Z" fill="#A0876F"/>
<path d="M234.24 204.96H204.96V219.6H234.24V204.96Z" fill="#8B7355"/>
<path d="M234.24 190.32H219.6V204.96H234.24V190.32Z" fill="#A0876F"/>
<path d="M234.24 248.88H204.96V263.52H234.24V248.88Z" fill="#8B7355"/>
<path d="M190.32 219.6H161.04V234.24H190.32V219.6Z" fill="#8B7355"/>
<path d="M190.32 204.96H175.68V219.6H190.32V204.96Z" fill="#A0876F"/>
<path d="M204.96 175.68H161.04V183H204.96V175.68Z" fill="#3498DB"/>
<path d="M219.6 183H190.32V190.32H219.6V183Z" fill="#3498DB"/>
<path d="M212.28 219.6H204.96V263.52H212.28V219.6Z" fill="#3498DB"/>
<path d="M226.92 263.52H212.28V270.84H226.92V263.52Z" fill="#3498DB"/>
<path d="M226.92 270.84H219.6V314.76H226.92V270.84Z" fill="#3498DB"/>
</svg>
