<svg xmlns="http://www.w3.org/2000/svg" width="40" height="28" viewBox="0 0 40 28" fill="none">
  <path d="M25.6 5.6001H14.4V7.0001H25.6V5.6001Z" fill="#4A4A4A"/>
  <path d="M25.6 7H14.4V9.8H25.6V7Z" fill="#6A6A6A"/>
  <path d="M24 7H16V9.8H24V7Z" fill="#8A8A8A"/>
  <path d="M32 9.7998H8V11.1998H32V9.7998Z" fill="#2A2A2A"/>
  <path d="M33.6 11.1997H6.40002V12.5997H33.6V11.1997Z" fill="#4A4A4A"/>
  <path d="M35.2 12.6001H4.80005V23.8001H35.2V12.6001Z" fill="#5A5A5A"/>
  <path d="M12.8 12.6001H4.80005V15.4001H12.8V12.6001Z" fill="#7A7A7A"/>
  <path d="M9.60005 15.3999H4.80005V18.1999H9.60005V15.3999Z" fill="#6A6A6A"/>
  <path d="M35.2001 12.6001H27.2001V23.8001H35.2001V12.6001Z" fill="#3A3A3A"/>
  <path d="M35.2 19.6001H24V23.8001H35.2V19.6001Z" fill="#2A2A2A"/>
  <path d="M27.1999 14H12.7999V15.4H27.1999V14Z" fill="#2A2A2A"/>
  <path d="M28.8 15.3999H11.2V16.7999H28.8V15.3999Z" fill="#2A2A2A"/>
  <path d="M30.4 16.7998H9.59998V20.9998H30.4V16.7998Z" fill="#3A3A3A"/>
  <path d="M28.8 21H11.2V22.4H28.8V21Z" fill="#2A2A2A"/>
  <path d="M27.1999 22.3999H12.7999V23.7999H27.1999V22.3999Z" fill="#2A2A2A"/>
  <path d="M27.1999 15.3999H12.7999V16.7999H27.1999V15.3999Z" fill="#4A4A4A"/>
  <path d="M28.8 16.7998H11.2V20.9998H28.8V16.7998Z" fill="#1A1A1A"/>
  <path d="M27.1999 21H12.7999V22.4H27.1999V21Z" fill="#4A4A4A"/>
  <path d="M25.6 16.7998H14.4V18.1998H25.6V16.7998Z" fill="#2E5F8F"/>
  <path d="M27.2 18.1997H12.8V19.5997H27.2V18.1997Z" fill="#3A7FB8"/>
  <path d="M27.2 19.5996H12.8V20.9996H27.2V19.5996Z" fill="#4A9FD8"/>
  <path d="M17.6 18.1997H14.4V19.5997H17.6V18.1997Z" fill="#6BC9FF"/>
  <path d="M17.6 19.5996H16V20.9996H17.6V19.5996Z" fill="#8FD9FF"/>
  <path d="M32 14H27.2V16.8H32V14Z" fill="#FFD700"/>
  <path d="M28.8 14H27.2V15.4H28.8V14Z" fill="#FFF68F"/>
  <path d="M31.9999 15.3999H30.3999V16.7999H31.9999V15.3999Z" fill="#CCAA00"/>
  <path d="M11.2 11.2002H8V12.6002H11.2V11.2002Z" fill="#C0392B"/>
  <path d="M9.6 11.2002H8V12.6002H9.6V11.2002Z" fill="#E74C3C"/>
  <path d="M33.6 23.7998H6.40002V25.1998H33.6V23.7998Z" fill="#2A2A2A"/>
</svg>