<svg xmlns="http://www.w3.org/2000/svg" width="64" height="64" viewBox="0 0 64 64" fill="none">
  <path d="M44.8 3.2002H19.2V6.4002H44.8V3.2002Z" fill="#2A2A2A"/>
  <path d="M51.1999 6.40039H12.7999V9.60039H51.1999V6.40039Z" fill="#2A2A2A"/>
  <path d="M54.4 9.6001H9.59998V12.8001H54.4V9.6001Z" fill="#2A2A2A"/>
  <path d="M57.5999 12.8003H6.3999V16.0003H57.5999V12.8003Z" fill="#2A2A2A"/>
  <path d="M60.7999 16H3.19995V19.2H60.7999V16Z" fill="#2A2A2A"/>
  <path d="M6.39995 19.2002H3.19995V44.8002H6.39995V19.2002Z" fill="#2A2A2A"/>
  <path d="M60.8 19.2002H57.6V44.8002H60.8V19.2002Z" fill="#2A2A2A"/>
  <path d="M60.7999 44.8003H3.19995V48.0003H60.7999V44.8003Z" fill="#2A2A2A"/>
  <path d="M57.5999 48H6.3999V51.2H57.5999V48Z" fill="#2A2A2A"/>
  <path d="M54.4 51.2002H9.59998V54.4002H54.4V51.2002Z" fill="#2A2A2A"/>
  <path d="M51.1999 54.4004H12.7999V57.6004H51.1999V54.4004Z" fill="#2A2A2A"/>
  <path d="M44.8 57.6001H19.2V60.8001H44.8V57.6001Z" fill="#2A2A2A"/>
  <path d="M44.8001 6.3999H19.2001V9.5999H44.8001V6.3999Z" fill="#3498DB"/>
  <path d="M51.2001 9.6001H12.8V12.8001H51.2001V9.6001Z" fill="#3498DB"/>
  <path d="M54.4 12.7998H9.59998V15.9998H54.4V12.7998Z" fill="#3498DB"/>
  <path d="M57.6 16H6.40002V19.2H57.6V16Z" fill="#3498DB"/>
  <path d="M57.6 19.1997H6.40002V44.7997H57.6V19.1997Z" fill="#3498DB"/>
  <path d="M57.6 44.7998H6.40002V47.9998H57.6V44.7998Z" fill="#3498DB"/>
  <path d="M54.4 48H9.59998V51.2H54.4V48Z" fill="#3498DB"/>
  <path d="M51.2001 51.1997H12.8V54.3997H51.2001V51.1997Z" fill="#3498DB"/>
  <path d="M44.8001 54.3999H19.2001V57.5999H44.8001V54.3999Z" fill="#3498DB"/>
  <path d="M38.4001 6.3999H19.2001V9.5999H38.4001V6.3999Z" fill="#5DADE2"/>
  <path d="M38.4 9.6001H12.8V12.8001H38.4V9.6001Z" fill="#5DADE2"/>
  <path d="M38.4 12.7998H9.59998V15.9998H38.4V12.7998Z" fill="#5DADE2"/>
  <path d="M38.4 16H6.40002V19.2H38.4V16Z" fill="#5DADE2"/>
  <path d="M41.6 19.1997H6.40002V25.5997H41.6V19.1997Z" fill="#5DADE2"/>
  <path d="M44.8 25.6001H6.40002V28.8001H44.8V25.6001Z" fill="#85C1E9"/>
  <path d="M57.5999 19.2002H38.3999V44.8002H57.5999V19.2002Z" fill="#2980B9"/>
  <path d="M57.6 38.4004H25.6V44.8004H57.6V38.4004Z" fill="#2980B9"/>
  <path d="M57.6 44.8003H19.2V48.0003H57.6V44.8003Z" fill="#2471A3"/>
  <path d="M57.6 48H25.6V51.2H57.6V48Z" fill="#2471A3"/>
  <path d="M51.2 51.2002H32V54.4002H51.2V51.2002Z" fill="#2471A3"/>
  <path d="M44.8 54.4004H35.2V57.6004H44.8V54.4004Z" fill="#2471A3"/>
  <path d="M35.2 19.2002H28.8V44.8002H35.2V19.2002Z" fill="white"/>
  <path d="M44.8 28.7998H19.2V35.1998H44.8V28.7998Z" fill="white"/>
  <path d="M35.2 22.3999H32V44.7999H35.2V22.3999Z" fill="#E0E0E0"/>
  <path d="M44.8 32H22.4V35.2H44.8V32Z" fill="#E0E0E0"/>
</svg>