<svg width="215" height="127" viewBox="0 0 215 127" fill="none" xmlns="http://www.w3.org/2000/svg">
<g filter="url(#filter0_d_1091_5664)">
<path d="M2.99536 33.5V30.5H5.99536V27.5H8.99536V30.5V33.5H5.99536V36.5H2.99536V33.5Z" fill="#1E3445"/>
<path d="M2.99536 33.5V36.5H-4.48227e-05V33.5H2.99536Z" fill="#1E3445"/>
<rect x="8.99536" y="27.5" width="194.009" height="3" fill="#1E3445"/>
<path d="M209.005 33.5V30.5H206.005V27.5H203.005V30.5V33.5H206.005V36.5H209.005V33.5Z" fill="#1E3445"/>
<path d="M209.005 33.5V36.5H212V33.5H209.005Z" fill="#1E3445"/>
<rect y="36.5" width="3" height="54" fill="#1E3445"/>
<rect width="206" height="66" transform="translate(3 30.5)" fill="white"/>
<path d="M42.75 63.5H48.75V65.5H42.75V77.5H38.75V51.5H42.75V63.5ZM20.75 73.5H18.75V53.5H22.75V73.5H30.75V71.5H34.75V73.5H32.75V75.5H20.75V73.5ZM77.25 77.5H73.25V75.5H51.25V73.5H73.25V51.5H77.25V77.5ZM63.25 67.5H55.25V65.5H53.25V63.5H51.25V57.5H53.25V55.5H55.25V53.5H63.25V55.5H65.25V57.5H67.25V63.5H65.25V65.5H63.25V67.5ZM57.25 57.5H55.25V63.5H57.25V65.5H61.25V63.5H63.25V57.5H61.25V55.5H57.25V57.5ZM120.25 63.5H126.25V65.5H118.25V63.5H116.25V61.5H112.25V63.5H110.25V65.5H102.25V63.5H108.25V61.5H110.25V59.5H112.25V55.5H102.25V53.5H112.25V51.5H116.25V53.5H126.25V55.5H116.25V59.5H118.25V61.5H120.25V63.5ZM128.25 69.5H116.25V77.5H112.25V69.5H100.25V67.5H128.25V69.5ZM144.75 63.5V65.5H136.75V63.5H134.75V61.5H132.75V55.5H134.75V53.5H136.75V51.5H144.75V53.5H146.75V55.5H148.75V57.5H154.75V51.5H158.75V65.5H154.75V59.5H148.75V61.5H146.75V63.5H144.75ZM138.75 63.5H142.75V61.5H144.75V55.5H142.75V53.5H138.75V55.5H136.75V61.5H138.75V63.5ZM134.75 67.5H158.75V75.5H156.75V77.5H154.75V69.5H134.75V67.5ZM167.25 51.5H191.25V53.5H171.25V59.5H191.25V61.5H169.25V59.5H167.25V51.5ZM193.25 65.5H165.25V63.5H193.25V65.5ZM167.25 71.5H187.25V69.5H167.25V67.5H191.25V73.5H171.25V75.5H191.25V77.5H169.25V75.5H167.25V71.5Z" fill="black"/>
<rect x="209" y="36.5" width="3" height="54" fill="#1E3445"/>
<path d="M209 30.5V33.5V36.5H206V33.5H203V30.5H206H209Z" fill="#1E3445"/>
<path d="M3 30.5V33.5V36.5H6V33.5H9V30.5H6H3Z" fill="#1E3445"/>
<path d="M2.99536 93.5V96.5H5.99536V99.5H8.99536V96.5V93.5H5.99536V90.5H2.99536V93.5Z" fill="#1E3445"/>
<path d="M2.99536 93.5V90.5H-4.48227e-05V93.5H2.99536Z" fill="#1E3445"/>
<rect width="194.009" height="3" transform="matrix(1 0 0 -1 8.99536 99.5)" fill="#1E3445"/>
<path d="M209.005 93.5V96.5H206.005V99.5H203.005V96.5V93.5H206.005V90.5H209.005V93.5Z" fill="#1E3445"/>
<path d="M209.005 93.5V90.5H212V93.5H209.005Z" fill="#1E3445"/>
</g>
<defs>
<filter id="filter0_d_1091_5664" x="0" y="0" width="215" height="130" filterUnits="userSpaceOnUse" color-interpolation-filters="sRGB">
<feFlood flood-opacity="0" result="BackgroundImageFix"/>
<feColorMatrix in="SourceAlpha" type="matrix" values="0 0 0 0 0 0 0 0 0 0 0 0 0 0 0 0 0 0 127 0" result="hardAlpha"/>
<feOffset dx="3" dy="3"/>
<feComposite in2="hardAlpha" operator="out"/>
<feColorMatrix type="matrix" values="0 0 0 0 0.117647 0 0 0 0 0.203922 0 0 0 0 0.270588 0 0 0 1 0"/>
<feBlend mode="normal" in2="BackgroundImageFix" result="effect1_dropShadow_1091_5664"/>
<feBlend mode="normal" in="SourceGraphic" in2="effect1_dropShadow_1091_5664" result="shape"/>
</filter>
</defs>
</svg>
