<svg xmlns="http://www.w3.org/2000/svg" width="35" height="40" viewBox="0 0 35 40" fill="none">
  <path d="M9.66667 14V10H33V14H9.66667ZM9.66667 22V18H33V22H9.66667ZM9.66667 30V26H33V30H9.66667ZM4.66667 14C4.19445 14 3.79889 13.808 3.48001 13.424C3.16112 13.04 3.00112 12.5653 3.00001 12C2.99889 11.4347 3.15889 10.96 3.48001 10.576C3.80112 10.192 4.19667 10 4.66667 10C5.13667 10 5.53278 10.192 5.855 10.576C6.17723 10.96 6.33667 11.4347 6.33334 12C6.33 12.5653 6.17 13.0407 5.85334 13.426C5.53667 13.8113 5.14112 14.0027 4.66667 14ZM4.66667 22C4.19445 22 3.79889 21.808 3.48001 21.424C3.16112 21.04 3.00112 20.5653 3.00001 20C2.99889 19.4347 3.15889 18.96 3.48001 18.576C3.80112 18.192 4.19667 18 4.66667 18C5.13667 18 5.53278 18.192 5.855 18.576C6.17723 18.96 6.33667 19.4347 6.33334 20C6.33 20.5653 6.17 21.0407 5.85334 21.426C5.53667 21.8113 5.14112 22.0027 4.66667 22ZM4.66667 30C4.19445 30 3.79889 29.808 3.48001 29.424C3.16112 29.04 3.00112 28.5653 3.00001 28C2.99889 27.4346 3.15889 26.96 3.48001 26.576C3.80112 26.192 4.19667 26 4.66667 26C5.13667 26 5.53278 26.192 5.855 26.576C6.17723 26.96 6.33667 27.4346 6.33334 28C6.33 28.5653 6.17 29.0406 5.85334 29.426C5.53667 29.8113 5.14112 30.0026 4.66667 30Z" fill="#9E9E9E"/>
</svg>
