<svg xmlns="http://www.w3.org/2000/svg" width="33" height="38" viewBox="0 0 33 38" fill="none">
  <path d="M29.0742 5.81436L28.0067 5.28462C27.2061 4.88564 26.5389 4.488 26.0051 3.82348L24.0022 1.83392C22.401 0.374117 20.1312 -0.156964 18.1283 0.506221C16.7939 0.903865 15.3261 0.903865 13.9918 0.506221C12.1223 -0.422504 9.9873 -0.0248606 8.51815 1.30284L6.11628 3.82481C5.44909 4.35456 4.7819 4.88564 4.11471 5.28462L3.04588 5.81436C1.17775 6.74442 0.110255 8.86741 0.37713 10.9917L1.84494 18.5563C1.97838 19.3516 2.64557 19.8827 3.44619 19.8827C11.3444 19.8827 20.0178 20.0161 28.6739 20.0161C29.4745 20.0161 30.0083 19.485 30.1417 18.6884L31.6095 11.1225C32.0098 8.86742 30.9423 6.74442 29.0742 5.81436Z" fill="#212121"/>
  <path d="M28.854 17.4089C28.7539 18.6419 28.6739 20.0163 28.6739 20.0163C29.4745 20.0163 30.0082 19.4852 30.1417 18.6886L30.2724 18.0134C31.0952 18.5723 31.6805 19.4174 31.9142 20.3842C32.148 21.351 32.0134 22.3702 31.5368 23.2432C31.0601 24.1162 30.2756 24.7805 29.3359 25.1067C28.3963 25.4328 27.3689 25.3975 26.4538 25.0076C25.5388 24.6176 24.8017 23.901 24.3862 22.9973C23.9706 22.0937 23.9064 21.0676 24.206 20.1192C24.5056 19.1707 25.1475 18.3678 26.0068 17.8667C26.866 17.3657 27.881 17.2025 28.854 17.4089ZM1.74083 18.0241L1.84491 18.5552C1.97835 19.3518 2.64554 19.8829 3.44616 19.8829C3.44616 19.8829 3.36743 18.6312 3.27003 17.3889C3.50932 17.3444 3.7544 17.3222 4.00527 17.3222C4.9631 17.3227 5.88901 17.6667 6.6149 18.2916C7.3408 18.9165 7.81856 19.781 7.96145 20.7281C8.10435 21.6752 7.90292 22.6422 7.39372 23.4535C6.88451 24.2647 6.1013 24.8665 5.18625 25.1496C4.2712 25.4327 3.28498 25.3783 2.40661 24.9963C1.52825 24.6143 0.815966 23.93 0.399071 23.0677C-0.0178249 22.2053 -0.111698 21.2221 0.134492 20.2964C0.380682 19.3708 0.950615 18.5641 1.74083 18.0228" fill="#F4C6AD"/>
  <path d="M3.32477 19.8788C3.3648 19.8815 3.40528 19.8828 3.4462 19.8828C3.4462 19.8828 3.31276 17.7598 3.17932 16.3C3.17932 15.6355 3.4462 14.8402 3.97995 14.4412L4.38026 14.0436C5.04745 13.5125 5.31432 12.7159 5.31432 11.9206V9.79625C5.31432 9.13306 5.71463 8.60198 6.38182 8.46988C7.98441 8.0709 11.3217 7.40771 16.1268 7.40771C20.9318 7.40771 24.2691 8.0709 25.8704 8.46988C26.4041 8.60198 26.9379 9.13306 26.9379 9.79625V11.9206C26.9379 12.7159 27.3382 13.5125 27.8719 14.0422L28.1388 14.5746C28.6726 15.1044 28.9394 15.7689 28.9394 16.4321C28.806 17.7598 28.6726 20.0149 28.6726 20.0149H28.7179L28.0574 29.8652C27.6571 34.2687 24.1957 37.3377 20.0685 37.3377H12.0783C7.81761 37.3377 4.48834 34.2687 4.08937 29.8652L3.32477 19.8788Z" fill="#FFD7C2"/>
  <path d="M15.0632 20.6941L13.7422 24.9241C13.6796 25.1259 13.6655 25.3396 13.7011 25.5479C13.7367 25.7562 13.8211 25.9531 13.9472 26.1226C14.0734 26.2921 14.2378 26.4293 14.4272 26.5232C14.6165 26.6171 14.8253 26.6649 15.0366 26.6628H16.9928C17.9108 26.6628 18.558 25.7794 18.2871 24.9227L16.9661 20.6928C16.6818 19.7574 15.3608 19.7574 15.0632 20.6928" fill="#E5AF93"/>
  <path d="M16.0147 29.1913C14.817 29.1993 13.6348 28.9192 12.568 28.3747C12.2277 28.2012 11.8608 28.5855 12.0756 28.8951C12.5068 29.5444 13.0924 30.0765 13.7799 30.4438C14.4674 30.811 15.2353 31.0019 16.0147 30.9994C16.7941 31.0019 17.562 30.811 18.2495 30.4438C18.9369 30.0765 19.5225 29.5444 19.9538 28.8951C20.1673 28.5735 19.8017 28.2012 19.4614 28.3747C18.3945 28.9192 17.2124 29.1993 16.0147 29.1913Z" fill="#990838"/>
  <path d="M6.69405 20.4804C6.8869 19.7145 7.33463 19.037 7.96363 18.5593C8.59263 18.0817 9.36545 17.8323 10.155 17.8522C10.9446 17.8721 11.7038 18.16 12.308 18.6687C12.9122 19.1774 13.3253 19.8765 13.4793 20.6512C13.4945 20.7339 13.4911 20.819 13.4696 20.9004C13.448 20.9817 13.4087 21.0573 13.3545 21.1217C13.3003 21.1861 13.2326 21.2377 13.1561 21.2728C13.0797 21.308 12.9964 21.3258 12.9122 21.325H7.36523C7.26116 21.3261 7.15821 21.3035 7.06423 21.2587C6.97026 21.214 6.88774 21.1484 6.82299 21.0669C6.75824 20.9854 6.71297 20.8902 6.69062 20.7886C6.66827 20.6869 6.66944 20.5815 6.69405 20.4804ZM25.3353 20.4804C25.1426 19.7316 24.7071 19.0678 24.097 18.5929C23.4868 18.118 22.7365 17.8587 21.9633 17.8556C21.1584 17.8537 20.3779 18.1316 19.7555 18.6419C19.133 19.1521 18.7073 19.8629 18.5513 20.6525C18.5364 20.7351 18.5399 20.8199 18.5615 20.901C18.5831 20.9821 18.6223 21.0574 18.6763 21.1216C18.7303 21.1858 18.7978 21.2373 18.874 21.2725C18.9502 21.3076 19.0332 21.3256 19.1171 21.325H24.6641C24.7681 21.3261 24.8711 21.3035 24.9651 21.2587C25.0591 21.214 25.1416 21.1484 25.2063 21.0669C25.2711 20.9854 25.3163 20.8902 25.3387 20.7886C25.361 20.6869 25.3599 20.5815 25.3353 20.4804Z" fill="white"/>
  <path d="M8.35399 20.734C8.35403 20.4172 8.42184 20.1041 8.55287 19.8157C8.6839 19.5274 8.87512 19.2703 9.11368 19.062C9.35225 18.8536 9.63264 18.6986 9.93602 18.6076C10.2394 18.5165 10.5588 18.4914 10.8727 18.534C11.1865 18.5765 11.4877 18.6857 11.7559 18.8543C12.0241 19.0228 12.2531 19.2468 12.4276 19.5112C12.6021 19.7756 12.718 20.0742 12.7675 20.3871C12.817 20.6999 12.799 21.0198 12.7147 21.3251H8.43272C8.38013 21.1324 8.35455 20.9337 8.35399 20.734ZM23.6753 20.734C23.6753 19.4983 22.6745 18.5122 21.4496 18.5122C21.1577 18.5106 20.8685 18.5671 20.5986 18.6783C20.3288 18.7894 20.0838 18.9532 19.8778 19.1599C19.6718 19.3666 19.509 19.6122 19.3988 19.8825C19.2886 20.1527 19.2332 20.4421 19.2358 20.734C19.2358 20.9439 19.2625 21.141 19.3159 21.3251H23.5966C23.6499 21.1276 23.6766 20.9435 23.6766 20.734" fill="#7D4533"/>
  <path d="M10.5797 19.4717C10.7977 19.4711 11.0122 19.527 11.2023 19.6338C11.3923 19.7407 11.5515 19.8949 11.6643 20.0814C11.7771 20.268 11.8398 20.4806 11.8461 20.6985C11.8525 20.9164 11.8024 21.1323 11.7006 21.3251H9.46017C9.35841 21.1323 9.30827 20.9164 9.31462 20.6985C9.32098 20.4806 9.38361 20.268 9.49644 20.0814C9.60927 19.8949 9.76844 19.7407 9.9585 19.6338C10.1486 19.527 10.363 19.4711 10.581 19.4717M21.4362 19.4717C21.2182 19.4711 21.0037 19.527 20.8136 19.6338C20.6236 19.7407 20.4644 19.8949 20.3516 20.0814C20.2388 20.268 20.1761 20.4806 20.1698 20.6985C20.1634 20.9164 20.2136 21.1323 20.3153 21.3251H22.5557C22.6575 21.1323 22.7076 20.9164 22.7013 20.6985C22.6949 20.4806 22.6323 20.268 22.5195 20.0814C22.4066 19.8949 22.2475 19.7407 22.0574 19.6338C21.8673 19.527 21.6542 19.4711 21.4362 19.4717Z" fill="black"/>
  <path d="M10.2101 19.8842C10.2101 20.1057 10.034 20.2845 9.81648 20.2845C9.71124 20.2831 9.61079 20.2403 9.53686 20.1654C9.46294 20.0905 9.4215 19.9894 9.42151 19.8842C9.42151 19.6627 9.59765 19.4839 9.81648 19.4839C10.0353 19.4839 10.2115 19.6627 10.2115 19.8842M21.1467 19.8842C21.1467 20.1057 20.9692 20.2845 20.7504 20.2845C20.6451 20.2831 20.5447 20.2403 20.4707 20.1654C20.3968 20.0905 20.3554 19.9894 20.3554 19.8842C20.3554 19.6627 20.5328 19.4839 20.7504 19.4839C20.9692 19.4839 21.1467 19.6627 21.1467 19.8842Z" fill="white"/>
  <path d="M6.6246 14.6359L6.62727 14.6333L6.63127 14.6306L6.64328 14.6212L6.67263 14.5972L6.76204 14.5305C6.83587 14.4762 6.93462 14.4095 7.05827 14.3304C7.30646 14.1742 7.65874 13.9807 8.10309 13.8046C9.28331 13.343 10.5659 13.2071 11.8167 13.411C11.989 13.4381 12.1543 13.499 12.3031 13.59C12.452 13.6811 12.5814 13.8005 12.684 13.9416C12.7867 14.0827 12.8606 14.2426 12.9014 14.4122C12.9423 14.5818 12.9493 14.7578 12.9222 14.9302C12.895 15.1025 12.8342 15.2678 12.7431 15.4166C12.6521 15.5655 12.5326 15.6949 12.3916 15.7976C12.2505 15.9002 12.0906 15.9741 11.921 16.0149C11.7513 16.0558 11.5753 16.0628 11.403 16.0357C10.6207 15.9049 9.81757 15.9879 9.07851 16.2759C8.81523 16.3793 8.56454 16.5122 8.33126 16.6722L8.31258 16.6869C8.178 16.7978 8.0229 16.8811 7.85611 16.9321C7.68933 16.9831 7.51414 17.0007 7.34054 16.984C7.16695 16.9672 6.99835 16.9165 6.84437 16.8346C6.69039 16.7527 6.55404 16.6413 6.44312 16.5067C6.3322 16.3721 6.24887 16.217 6.19789 16.0502C6.14692 15.8835 6.12929 15.7083 6.14602 15.5347C6.1798 15.1841 6.35147 14.8613 6.62326 14.6373M25.2685 14.6359L25.2658 14.6333L25.2618 14.6306L25.2498 14.6212L25.2204 14.5972L25.131 14.5305C25.0346 14.4605 24.9358 14.3937 24.8348 14.3304C24.5026 14.1249 24.153 13.9489 23.79 13.8046C22.6098 13.343 21.3272 13.2071 20.0764 13.411C19.9041 13.4381 19.7388 13.499 19.59 13.59C19.4411 13.6811 19.3117 13.8005 19.209 13.9416C19.1064 14.0827 19.0325 14.2426 18.9917 14.4122C18.9508 14.5818 18.9437 14.7578 18.9709 14.9302C18.9981 15.1025 19.0589 15.2678 19.15 15.4166C19.241 15.5655 19.3605 15.6949 19.5015 15.7976C19.6426 15.9002 19.8025 15.9741 19.9721 16.0149C20.1417 16.0558 20.3177 16.0628 20.4901 16.0357C21.2724 15.9049 22.0755 15.9879 22.8146 16.2759C23.077 16.3812 23.3274 16.5141 23.5618 16.6722L23.5805 16.6869C23.8525 16.9107 24.2022 17.0173 24.5528 16.9833C24.9034 16.9493 25.2261 16.7774 25.45 16.5054C25.6738 16.2334 25.7804 15.8837 25.7464 15.5331C25.7124 15.1825 25.5405 14.8598 25.2685 14.6359Z" fill="#212121"/>
</svg>