<svg width="109" height="40" viewBox="0 0 109 40" fill="none" xmlns="http://www.w3.org/2000/svg">
<g filter="url(#filter0_d_1091_6840)">
<path d="M6 0V3H3V6H0V31H3V34H6V37H9V0H6Z" fill="#DD1A21"/>
</g>
<path d="M6 0V3H3V6H0V9H3H6V6H9V3V0H6Z" fill="#05131D"/>
<rect y="9" width="3" height="19" fill="#05131D"/>
<path d="M6 37V34H3V31H0V28H3H6V31H9V34V37H6Z" fill="#05131D"/>
<g filter="url(#filter1_d_1091_6840)">
<rect width="88" height="37" transform="translate(9)" fill="#DD1A21"/>
<rect x="9" width="88" height="3" fill="#05131D"/>
<path d="M33.875 25.625H31.75V19.25H28.5625V18.1875H31.75V11.8125H33.875V25.625ZM28.5625 24.5625H26.4375V23.5H25.375V22.4375H23.25V23.5H22.1875V24.5625H20.0625V23.5H21.125V22.4375H22.1875V21.375H23.25V13.9375H20.0625V12.875H28.5625V13.9375H25.375V21.375H26.4375V22.4375H27.5V23.5H28.5625V24.5625ZM45.5625 19.25H43.4375V18.1875H42.375V17.125H40.25V18.1875H39.1875V19.25H37.0625V18.1875H38.125V17.125H39.1875V16.0625H40.25V12.875H37.0625V11.8125H45.5625V12.875H42.375V16.0625H43.4375V17.125H44.5V18.1875H45.5625V19.25ZM49.8125 15H53V16.0625H49.8125V19.25H47.6875V11.8125H49.8125V15ZM38.125 21.375H40.25V20.3125H47.6875V21.375H49.8125V24.5625H47.6875V25.625H40.25V24.5625H38.125V21.375ZM41.3125 22.4375H40.25V23.5H41.3125V24.5625H46.625V23.5H47.6875V22.4375H46.625V21.375H41.3125V22.4375ZM59.375 12.875H62.5625V13.9375H54.0625V12.875H57.25V11.8125H59.375V12.875ZM66.8125 18.1875H70V19.25H66.8125V25.625H64.6875V11.8125H66.8125V18.1875ZM60.4375 24.5625H56.1875V23.5H55.125V22.4375H54.0625V17.125H55.125V16.0625H56.1875V15H60.4375V16.0625H61.5V17.125H62.5625V22.4375H61.5V23.5H60.4375V24.5625ZM57.25 17.125H56.1875V22.4375H57.25V23.5H59.375V22.4375H60.4375V17.125H59.375V16.0625H57.25V17.125ZM84.875 25.625H82.75V11.8125H84.875V25.625ZM74.25 22.4375H75.3125V13.9375H71.0625V12.875H77.4375V22.4375H76.375V23.5H75.3125V24.5625H72.125V23.5H74.25V22.4375Z" fill="white"/>
<rect x="9" y="34" width="88" height="3" fill="#05131D"/>
</g>
<g filter="url(#filter2_d_1091_6840)">
<path d="M100 0V3H103V6H106V31H103V34H100V37H97V0H100Z" fill="#DD1A21"/>
</g>
<path d="M100 0V3H103V6H106V9H103H100V6H97V3V0H100Z" fill="#05131D"/>
<rect width="3" height="19" transform="matrix(-1 0 0 1 106 9)" fill="#05131D"/>
<path d="M100 37V34H103V31H106V28H103H100V31H97V34V37H100Z" fill="#05131D"/>
<defs>
<filter id="filter0_d_1091_6840" x="0" y="0" width="12" height="40" filterUnits="userSpaceOnUse" color-interpolation-filters="sRGB">
<feFlood flood-opacity="0" result="BackgroundImageFix"/>
<feColorMatrix in="SourceAlpha" type="matrix" values="0 0 0 0 0 0 0 0 0 0 0 0 0 0 0 0 0 0 127 0" result="hardAlpha"/>
<feOffset dx="3" dy="3"/>
<feComposite in2="hardAlpha" operator="out"/>
<feColorMatrix type="matrix" values="0 0 0 0 0.0196078 0 0 0 0 0.0745098 0 0 0 0 0.113725 0 0 0 1 0"/>
<feBlend mode="normal" in2="BackgroundImageFix" result="effect1_dropShadow_1091_6840"/>
<feBlend mode="normal" in="SourceGraphic" in2="effect1_dropShadow_1091_6840" result="shape"/>
</filter>
<filter id="filter1_d_1091_6840" x="9" y="0" width="91" height="40" filterUnits="userSpaceOnUse" color-interpolation-filters="sRGB">
<feFlood flood-opacity="0" result="BackgroundImageFix"/>
<feColorMatrix in="SourceAlpha" type="matrix" values="0 0 0 0 0 0 0 0 0 0 0 0 0 0 0 0 0 0 127 0" result="hardAlpha"/>
<feOffset dx="3" dy="3"/>
<feComposite in2="hardAlpha" operator="out"/>
<feColorMatrix type="matrix" values="0 0 0 0 0.0196078 0 0 0 0 0.0745098 0 0 0 0 0.113725 0 0 0 1 0"/>
<feBlend mode="normal" in2="BackgroundImageFix" result="effect1_dropShadow_1091_6840"/>
<feBlend mode="normal" in="SourceGraphic" in2="effect1_dropShadow_1091_6840" result="shape"/>
</filter>
<filter id="filter2_d_1091_6840" x="97" y="0" width="12" height="40" filterUnits="userSpaceOnUse" color-interpolation-filters="sRGB">
<feFlood flood-opacity="0" result="BackgroundImageFix"/>
<feColorMatrix in="SourceAlpha" type="matrix" values="0 0 0 0 0 0 0 0 0 0 0 0 0 0 0 0 0 0 127 0" result="hardAlpha"/>
<feOffset dx="3" dy="3"/>
<feComposite in2="hardAlpha" operator="out"/>
<feColorMatrix type="matrix" values="0 0 0 0 0.0196078 0 0 0 0 0.0745098 0 0 0 0 0.113725 0 0 0 1 0"/>
<feBlend mode="normal" in2="BackgroundImageFix" result="effect1_dropShadow_1091_6840"/>
<feBlend mode="normal" in="SourceGraphic" in2="effect1_dropShadow_1091_6840" result="shape"/>
</filter>
</defs>
</svg>
